<svg xmlns="http://www.w3.org/2000/svg" xmlns:xlink="http://www.w3.org/1999/xlink" viewBox="0 0 150 150">
  <defs>
    <path id="a" d="M0 0h108v108H0z" class="cls-1"/>
  </defs>
  <defs>
    <pattern id="b" width="107.7" height="107.7" data-name="New Pattern Swatch 2" patternTransform="translate(0 37)" patternUnits="userSpaceOnUse" viewBox="0 0 108 108">
      <use xlink:href="#a" class="cls-1"/>
      <use xlink:href="#a" class="cls-2"/>
    </pattern>
  </defs>
  <path fill="url(#b)" d="M63 93h-4a2 2 0 0 1-2-3c2-5 3-10 2-13a17 17 0 0 1-13-4c-4-3-6-8-6-14a28 28 0 0 1 8-20c5-4 13-10 25-10 21 0 30 13 30 21 0 13-11 14-17 15a11 11 0 0 1-5 7 10 10 0 0 1-8 1c-3 4-6 10-9 19a2 2 0 0 1-1 1Zm-2-20a2 2 0 0 1 1 1l1 10c2-7 5-12 8-15a2 2 0 0 1 2 0h6c2-1 3-4 3-7a2 2 0 0 1 2-1c10 0 15-2 15-11 0-6-8-17-26-17-11 0-18 5-22 9a24 24 0 0 0-7 17c0 5 2 9 5 11 3 3 7 4 11 3a2 2 0 0 1 1 0Z"/>
  <path d="M81 132a2 2 0 0 1-2-2c0-4 1-9 5-13 4-6 16-6 20-6h1l6-2v-3a8 8 0 0 1-1-2l2-5a14 14 0 0 0 1-2l-6-1a2 2 0 0 1 0-4l7-1v-1a17 17 0 0 1-1-3c0-3 2-4 4-4l3-3-5-9-3-5a22 22 0 0 1 0-5c0-4 0-10-2-16-2-5-11-27-45-23-12 2-21 7-26 16s-7 19-4 30c1 5 3 9 6 12 3 4 6 9 6 19a56 56 0 0 1-5 18l-1 2a2 2 0 0 1-3-2l1-2a52 52 0 0 0 4-16c0-9-2-12-6-17a36 36 0 0 1-6-13c-3-12-2-24 4-33s17-16 30-17c36-6 47 20 49 25 2 6 2 13 2 17a23 23 0 0 0 0 4 20 20 0 0 0 2 4c3 3 6 8 5 11 0 4-3 6-5 6l-1 1a18 18 0 0 0 1 2 7 7 0 0 1 0 4 4 4 0 0 1-2 2 3 3 0 0 1 1 1l-2 5a11 11 0 0 0-1 2 3 3 0 0 1 0 1 7 7 0 0 1 0 7c-1 2-4 4-9 4h-1c-11 0-16 2-17 4-3 4-4 9-4 12a2 2 0 0 1-2 1Z" class="cls-4"/>
  <path d="M63 93h-4a2 2 0 0 1-2-3c2-5 3-10 2-13a17 17 0 0 1-13-4c-4-3-6-8-6-14a28 28 0 0 1 8-20c5-4 13-10 25-10 21 0 30 13 30 21 0 13-11 14-17 15a11 11 0 0 1-5 7 10 10 0 0 1-8 1c-3 4-6 10-9 19a2 2 0 0 1-1 1Zm-2-20a2 2 0 0 1 1 1l1 10c2-7 5-12 8-15a2 2 0 0 1 2 0h6c2-1 3-4 3-7a2 2 0 0 1 2-1c10 0 15-2 15-11 0-6-8-17-26-17-11 0-18 5-22 9a24 24 0 0 0-7 17c0 5 2 9 5 11 3 3 7 4 11 3a2 2 0 0 1 1 0Z" class="cls-4"/>
</svg>