<svg xmlns="http://www.w3.org/2000/svg" width="14" height="14">
  <g fill="#004b88" fill-rule="evenodd">
    <path d="M11.396 6.974a.865.865 0 0 0-.865.865v3.672c0 .2-.162.362-.36.362H2.478a.361.361 0 0 1-.36-.362v-7.69a.36.36 0 0 1 .36-.36h3.673a.865.865 0 1 0 0-1.73H2.479A2.093 2.093 0 0 0 .39 3.82v7.69c0 1.154.938 2.092 2.09 2.092h7.691c1.153 0 2.09-.938 2.09-2.091V7.839a.865.865 0 0 0-.864-.865"/>
    <path d="M14 .907V.878a.76.76 0 0 0-.305-.6.762.762 0 0 0-.582-.278H8.307a.773.773 0 0 0-.773.773v.221c0 .427.346.773.773.773h2.687L6.978 5.783a.773.773 0 0 0 0 1.093l.156.156a.772.772 0 0 0 1.093 0l4.005-4.005v2.521c0 .427.346.773.773.773h.22A.773.773 0 0 0 14 5.548V.962a.69.69 0 0 0 0-.055"/>
  </g>
</svg>