<svg xmlns="http://www.w3.org/2000/svg" viewBox="0 0 24 24">
  <path d="M13 6h3l2 1v1a11 11 0 0 1-1 0h-1v1l-1-1a5 5 0 0 0-5 0L8 9a5 5 0 0 0 0 4l-1 1a7 7 0 0 1-1-2l1-4-5 3v1l3 2v1H4l-2-1-1-1-1-1 3-3c2-2 4-3 7-3a16 16 0 0 1 3 0zm8 0 1 1-7 4-9 5-3 2v-1l5-3 9-5 4-3zm-8 2 2 1h-1v1l-1-1a2 2 0 0 0-1 0l-2 2a2 2 0 0 0 0 1H9v1H8a2 2 0 0 1 0-1l1-3a4 4 0 0 1 4-1zm8 1 3 3-2 2-8 4h-1a15 15 0 0 1-4-1H7l2-2v1a5 5 0 0 0 3 0c3 0 5-2 5-4v-1l1-1a6 6 0 0 1 0 2v1l-1 2 5-3v-1l-2-1V9h1zm-5 3-1 1a4 4 0 0 1-5 2l1-1h2l1-1 1-1 1-1v1z"/>
</svg>